<?xml version="1.0" encoding="UTF-8" standalone="no"?>
<!-- Created with Inkscape (http://www.inkscape.org/) -->

<svg
   xmlns:dc="http://purl.org/dc/elements/1.1/"
   xmlns:cc="http://creativecommons.org/ns#"
   xmlns:rdf="http://www.w3.org/1999/02/22-rdf-syntax-ns#"
   xmlns:svg="http://www.w3.org/2000/svg"
   xmlns="http://www.w3.org/2000/svg"
   xmlns:sodipodi="http://sodipodi.sourceforge.net/DTD/sodipodi-0.dtd"
   xmlns:inkscape="http://www.inkscape.org/namespaces/inkscape"
   id="svg6597"
   version="1.1"
   inkscape:version="0.91 r13725"
   xml:space="preserve"
   width="708.75"
   height="426.25"
   viewBox="0 0 708.75 426.25"
   sodipodi:docname="Pint_explication.svg"><metadata
     id="metadata6603"><rdf:RDF><cc:Work
         rdf:about=""><dc:format>image/svg+xml</dc:format><dc:type
           rdf:resource="http://purl.org/dc/dcmitype/StillImage" /><dc:title></dc:title></cc:Work></rdf:RDF></metadata><defs
     id="defs6601"><clipPath
       clipPathUnits="userSpaceOnUse"
       id="clipPath6635"><path
         d="m 0,0 566.929,0 0,341.187 L 0,341.187 0,0 Z"
         id="path6637"
         inkscape:connector-curvature="0" /></clipPath><clipPath
       clipPathUnits="userSpaceOnUse"
       id="clipPath6651"><path
         d="m 0,0 566.929,0 0,341.187 L 0,341.187 0,0 Z"
         id="path6653"
         inkscape:connector-curvature="0" /></clipPath><clipPath
       clipPathUnits="userSpaceOnUse"
       id="clipPath6665"><path
         d="m 0,0 566.929,0 0,341.187 L 0,341.187 0,0 Z"
         id="path6667"
         inkscape:connector-curvature="0" /></clipPath><clipPath
       clipPathUnits="userSpaceOnUse"
       id="clipPath6679"><path
         d="m 0,0 566.929,0 0,341.187 L 0,341.187 0,0 Z"
         id="path6681"
         inkscape:connector-curvature="0" /></clipPath><clipPath
       clipPathUnits="userSpaceOnUse"
       id="clipPath6693"><path
         d="m 0,0 566.929,0 0,341.187 L 0,341.187 0,0 Z"
         id="path6695"
         inkscape:connector-curvature="0" /></clipPath><clipPath
       clipPathUnits="userSpaceOnUse"
       id="clipPath6707"><path
         d="m 0,0 566.929,0 0,341.187 L 0,341.187 0,0 Z"
         id="path6709"
         inkscape:connector-curvature="0" /></clipPath><clipPath
       clipPathUnits="userSpaceOnUse"
       id="clipPath6721"><path
         d="m 0,0 566.929,0 0,341.187 L 0,341.187 0,0 Z"
         id="path6723"
         inkscape:connector-curvature="0" /></clipPath><clipPath
       clipPathUnits="userSpaceOnUse"
       id="clipPath6737"><path
         d="m 0,0 566.929,0 0,341.187 L 0,341.187 0,0 Z"
         id="path6739"
         inkscape:connector-curvature="0" /></clipPath><clipPath
       clipPathUnits="userSpaceOnUse"
       id="clipPath6751"><path
         d="m 0,0 566.929,0 0,341.187 L 0,341.187 0,0 Z"
         id="path6753"
         inkscape:connector-curvature="0" /></clipPath><clipPath
       clipPathUnits="userSpaceOnUse"
       id="clipPath6811"><path
         d="m 0,0 566.929,0 0,341.187 L 0,341.187 0,0 Z"
         id="path6813"
         inkscape:connector-curvature="0" /></clipPath><clipPath
       clipPathUnits="userSpaceOnUse"
       id="clipPath6825"><path
         d="m 0,0 566.929,0 0,341.187 L 0,341.187 0,0 Z"
         id="path6827"
         inkscape:connector-curvature="0" /></clipPath><clipPath
       clipPathUnits="userSpaceOnUse"
       id="clipPath6839"><path
         d="m 0,0 566.929,0 0,341.187 L 0,341.187 0,0 Z"
         id="path6841"
         inkscape:connector-curvature="0" /></clipPath><clipPath
       clipPathUnits="userSpaceOnUse"
       id="clipPath6853"><path
         d="m 0,0 566.929,0 0,341.187 L 0,341.187 0,0 Z"
         id="path6855"
         inkscape:connector-curvature="0" /></clipPath><clipPath
       clipPathUnits="userSpaceOnUse"
       id="clipPath6867"><path
         d="m 0,0 566.929,0 0,341.187 L 0,341.187 0,0 Z"
         id="path6869"
         inkscape:connector-curvature="0" /></clipPath><clipPath
       clipPathUnits="userSpaceOnUse"
       id="clipPath6881"><path
         d="m 0,0 566.929,0 0,341.187 L 0,341.187 0,0 Z"
         id="path6883"
         inkscape:connector-curvature="0" /></clipPath><clipPath
       clipPathUnits="userSpaceOnUse"
       id="clipPath6903"><path
         d="m 0,0 566.929,0 0,341.187 L 0,341.187 0,0 Z"
         id="path6905"
         inkscape:connector-curvature="0" /></clipPath><clipPath
       clipPathUnits="userSpaceOnUse"
       id="clipPath6917"><path
         d="m 0,0 566.929,0 0,341.187 L 0,341.187 0,0 Z"
         id="path6919"
         inkscape:connector-curvature="0" /></clipPath><clipPath
       clipPathUnits="userSpaceOnUse"
       id="clipPath6949"><path
         d="m 0,0 566.929,0 0,341.187 L 0,341.187 0,0 Z"
         id="path6951"
         inkscape:connector-curvature="0" /></clipPath><clipPath
       clipPathUnits="userSpaceOnUse"
       id="clipPath6963"><path
         d="m 0,0 566.929,0 0,341.187 L 0,341.187 0,0 Z"
         id="path6965"
         inkscape:connector-curvature="0" /></clipPath><clipPath
       clipPathUnits="userSpaceOnUse"
       id="clipPath6991"><path
         d="m 0,0 566.929,0 0,341.187 L 0,341.187 0,0 Z"
         id="path6993"
         inkscape:connector-curvature="0" /></clipPath><clipPath
       clipPathUnits="userSpaceOnUse"
       id="clipPath7007"><path
         d="m 0,0 566.929,0 0,341.187 L 0,341.187 0,0 Z"
         id="path7009"
         inkscape:connector-curvature="0" /></clipPath><clipPath
       clipPathUnits="userSpaceOnUse"
       id="clipPath7021"><path
         d="m 0,0 566.929,0 0,341.187 L 0,341.187 0,0 Z"
         id="path7023"
         inkscape:connector-curvature="0" /></clipPath><clipPath
       clipPathUnits="userSpaceOnUse"
       id="clipPath7035"><path
         d="m 0,0 566.929,0 0,341.187 L 0,341.187 0,0 Z"
         id="path7037"
         inkscape:connector-curvature="0" /></clipPath><clipPath
       clipPathUnits="userSpaceOnUse"
       id="clipPath7049"><path
         d="m 0,0 566.929,0 0,341.187 L 0,341.187 0,0 Z"
         id="path7051"
         inkscape:connector-curvature="0" /></clipPath><clipPath
       clipPathUnits="userSpaceOnUse"
       id="clipPath7063"><path
         d="m 0,0 566.929,0 0,341.187 L 0,341.187 0,0 Z"
         id="path7065"
         inkscape:connector-curvature="0" /></clipPath><clipPath
       clipPathUnits="userSpaceOnUse"
       id="clipPath7077"><path
         d="m 0,0 566.929,0 0,341.187 L 0,341.187 0,0 Z"
         id="path7079"
         inkscape:connector-curvature="0" /></clipPath><clipPath
       clipPathUnits="userSpaceOnUse"
       id="clipPath7091"><path
         d="m 0,0 566.929,0 0,341.187 L 0,341.187 0,0 Z"
         id="path7093"
         inkscape:connector-curvature="0" /></clipPath></defs><sodipodi:namedview
     pagecolor="#ffffff"
     bordercolor="#666666"
     borderopacity="1"
     objecttolerance="10"
     gridtolerance="10"
     guidetolerance="10"
     inkscape:pageopacity="0"
     inkscape:pageshadow="2"
     inkscape:window-width="1920"
     inkscape:window-height="1000"
     id="namedview6599"
     showgrid="false"
     inkscape:zoom="1.5660031"
     inkscape:cx="294.45747"
     inkscape:cy="215.79402"
     inkscape:window-x="0"
     inkscape:window-y="0"
     inkscape:window-maximized="1"
     inkscape:current-layer="g6605" /><g
     id="g6605"
     inkscape:groupmode="layer"
     inkscape:label="Pint_int"
     transform="matrix(1.25,0,0,-1.25,0,426.25)"><path
       d="m 0,0 566.929,0 0,341.187 L 0,341.187 0,0 Z"
       style="fill:#ffffff;fill-opacity:1;fill-rule:evenodd;stroke:none"
       id="path6607"
       inkscape:connector-curvature="0" /><path
       d="m 56.65,49.3542 453.2,0 0,272.95 -453.2,0 0,-272.95 z"
       style="fill:#ffffff;fill-opacity:1;fill-rule:evenodd;stroke:none"
       id="path6609"
       inkscape:connector-curvature="0" /><path
       d="m 56.65,49.3542 453.2,0 0,272.95 -453.2,0 0,-272.95 z"
       style="fill:none;stroke:#000000;stroke-width:0.75;stroke-linecap:butt;stroke-linejoin:miter;stroke-miterlimit:10;stroke-dasharray:none;stroke-opacity:1"
       id="path6611"
       inkscape:connector-curvature="0" /><path
       d="m 49.498034,46.799927 453.199996,0 0,272.950003 -453.199996,0 0,-272.950003 z"
       style="fill:#ffffff;fill-opacity:1;fill-rule:evenodd;stroke:none"
       id="path6613"
       inkscape:connector-curvature="0" /><path
       d="m 56.65,49.3542 453.2,0 0,272.95 -453.2,0 0,-272.95 z"
       style="fill:none;stroke:#000000;stroke-width:0.7504;stroke-linecap:butt;stroke-linejoin:miter;stroke-miterlimit:10;stroke-dasharray:none;stroke-opacity:1"
       id="path6615"
       inkscape:connector-curvature="0" /><path
       d="m 56.65,49.3542 0,48.7554 4.532,0 0,179.2424 4.532,0 0,-7.662 4.532,0 0,-4.214 4.532,0 0,-6.091 4.532,0 0,-1.194 4.532,0 0,1.783 4.532,0 0,-3.151 4.532,0 0,-5.036 4.532,0 0,3.327 4.532,0 0,-4.101 4.532,0 0,-2.488 4.532,0 0,-0.462 4.532,0 0,3.779 4.532,0 0,-3.663 4.532,0 0,-4.232 4.532,0 0,3.593 4.532,0 0,-3.777 4.532,0 0,4.992 4.532,0 0,-1.449 4.532,0 0,-1.241 4.532,0 0,0.889 4.532,0 0,-3.007 4.532,0 0,3.066 4.532,0 0,-2.393 4.532,0 0,1.445 4.532,0 0,-1.75 4.532,0 0,-1.233 4.532,0 0,2.264 4.532,0 0,-2.264 4.532,0 0,0.681 4.532,0 0,-1.306 4.532,0 0,4.024 4.532,0 0,-2.166 4.532,0 0,-2.678 4.532,0 0,1.941 4.532,0 0,-3.872 4.532,0 0,0.908 4.532,0 0,2.592 4.532,0 0,-4.287 4.532,0 0,1.63 4.532,0 0,2.719 4.532,0 0,-3.042 4.532,0 0,-1.837 4.532,0 0,4.131 4.532,0 0,-3.272 4.532,0 0,0.262 4.532,0 0,0.065 4.532,0 0,-2.596 4.532,0 0,4.403 4.532,0 0,-1.741 4.532,0 0,1.869 4.532,0 0,0.063 4.532,0 0,0.444 4.532,0 0,-5.994 4.532,0 0,6.81 4.532,0 0,-1.387 4.532,0 0,0.886 4.532,0 0,-1.333 4.532,0 0,-0.708 4.532,0 0,-0.195 4.532,0 0,-1.707 4.532,0 0,-0.2 4.532,0 0,-2.927 4.532,0 0,3.06 4.532,0 0,0.133 4.532,0 0,-1.138 4.532,0 0,2.65 4.532,0 0,0.065 4.532,0 0,-2.783 4.532,0 0,5.521 4.532,0 0,-2.414 4.532,0 0,-0.26 4.532,0 0,-2.779 4.532,0 0,-0.271 4.532,0 0,2.267 4.532,0 0,-0.197 4.532,0 0,0.132 4.532,0 0,4.02 4.532,0 0,-3.366 4.532,0 0,-0.457 4.532,0 0,-1.59 4.532,0 0,4.602 4.532,0 0,-2.49 4.532,0 0,3.115 4.532,0 0,-4.96 4.532,0 0,-0.603 4.532,0 0,2.901 4.532,0 0,-2.431 4.532,0 0,-2.38 4.532,0 0,3.045 4.532,0 0,-0.265 4.532,0 0,-40.014 4.532,0 0,-149.0208 4.532,0 0,0 4.532,0 0,0 4.532,0 0,0 4.532,0 0,0 4.532,0 0,0 4.532,0 0,0 4.532,0 0,0"
       style="fill:#0000ff;fill-opacity:1;fill-rule:evenodd;stroke:none"
       id="path6617"
       inkscape:connector-curvature="0" /><path
       d="m 56.65,98.1096 4.532,0 0,179.2424 4.532,0 0,-7.662 4.532,0 0,-4.214 4.532,0 0,-6.091 4.532,0 0,-1.194 4.532,0 0,1.783 4.532,0 0,-3.151 4.532,0 0,-5.036 4.532,0 0,3.327 4.532,0 0,-4.101 4.532,0 0,-2.488 4.532,0 0,-0.462 4.532,0 0,3.779 4.532,0 0,-3.663 4.532,0 0,-4.232 4.532,0 0,3.593 4.532,0 0,-3.777 4.532,0 0,4.992 4.532,0 0,-1.449 4.532,0 0,-1.241 4.532,0 0,0.889 4.532,0 0,-3.007 4.532,0 0,3.066 4.532,0 0,-2.393 4.532,0 0,1.445 4.532,0 0,-1.75 4.532,0 0,-1.233 4.532,0 0,2.264 4.532,0 0,-2.264 4.532,0 0,0.681 4.532,0 0,-1.306 4.532,0 0,4.024 4.532,0 0,-2.166 4.532,0 0,-2.678 4.532,0 0,1.941 4.532,0 0,-3.872 4.532,0 0,0.908 4.532,0 0,2.592 4.532,0 0,-4.287 4.532,0 0,1.63 4.532,0 0,2.719 4.532,0 0,-3.042 4.532,0 0,-1.837 4.532,0 0,4.131 4.532,0 0,-3.272 4.532,0 0,0.262 4.532,0 0,0.065 4.532,0 0,-2.596 4.532,0 0,4.403 4.532,0 0,-1.741 4.532,0 0,1.869 4.532,0 0,0.063 4.532,0 0,0.444 4.532,0 0,-5.994 4.532,0 0,6.81 4.532,0 0,-1.387 4.532,0 0,0.886 4.532,0 0,-1.333 4.532,0 0,-0.708 4.532,0 0,-0.195 4.532,0 0,-1.707 4.532,0 0,-0.2 4.532,0 0,-2.927 4.532,0 0,3.06 4.532,0 0,0.133 4.532,0 0,-1.138 4.532,0 0,2.65 4.532,0 0,0.065 4.532,0 0,-2.783 4.532,0 0,5.521 4.532,0 0,-2.414 4.532,0 0,-0.26 4.532,0 0,-2.779 4.532,0 0,-0.271 4.532,0 0,2.267 4.532,0 0,-0.197 4.532,0 0,0.132 4.532,0 0,4.02 4.532,0 0,-3.366 4.532,0 0,-0.457 4.532,0 0,-1.59 4.532,0 0,4.602 4.532,0 0,-2.49 4.532,0 0,3.115 4.532,0 0,-4.96 4.532,0 0,-0.603 4.532,0 0,2.901 4.532,0 0,-2.431 4.532,0 0,-2.38 4.532,0 0,3.045 4.532,0 0,-0.265 4.532,0 0,-40.014 4.532,0 0,-149.0208 4.532,0 0,0 4.532,0 0,0 4.532,0 0,0 4.532,0 0,0 4.532,0 0,0 4.532,0 0,0 4.532,0"
       style="fill:none;stroke:#000000;stroke-width:1.5;stroke-linecap:butt;stroke-linejoin:miter;stroke-miterlimit:10;stroke-dasharray:none;stroke-opacity:1"
       id="path6619"
       inkscape:connector-curvature="0" /><path
       d="m 537.746,310.717 17.5958,0 0,8.58333 -17.5958,0 0,-8.58333 z"
       style="fill:#ffffff;fill-opacity:1;fill-rule:evenodd;stroke:none"
       id="path6621"
       inkscape:connector-curvature="0" /><path
       d="m 537.746,310.717 17.596,0"
       style="fill:none;stroke:#ffffff;stroke-width:0.75;stroke-linecap:butt;stroke-linejoin:miter;stroke-miterlimit:10;stroke-dasharray:none;stroke-opacity:1"
       id="path6623"
       inkscape:connector-curvature="0" /><path
       d="m 555.342,310.717 0,8.583"
       style="fill:none;stroke:#ffffff;stroke-width:0.75;stroke-linecap:butt;stroke-linejoin:miter;stroke-miterlimit:10;stroke-dasharray:none;stroke-opacity:1"
       id="path6625"
       inkscape:connector-curvature="0" /><path
       d="m 555.342,319.3 -17.596,0"
       style="fill:none;stroke:#ffffff;stroke-width:0.75;stroke-linecap:butt;stroke-linejoin:miter;stroke-miterlimit:10;stroke-dasharray:none;stroke-opacity:1"
       id="path6627"
       inkscape:connector-curvature="0" /><path
       d="m 537.746,319.3 0,-8.583"
       style="fill:none;stroke:#ffffff;stroke-width:0.75;stroke-linecap:butt;stroke-linejoin:miter;stroke-miterlimit:10;stroke-dasharray:none;stroke-opacity:1"
       id="path6629"
       inkscape:connector-curvature="0" /><g
       id="g6631"><g
         id="g6633"
         clip-path="url(#clipPath6635)"><g
           id="g6639"
           transform="translate(542.467,317.583)"><text
             transform="scale(1,-1)"
             style="font-variant:normal;font-weight:normal;font-size:1.71667004px;font-family:Helvetica;-inkscape-font-specification:Helvetica;writing-mode:lr-tb;fill:#ffffff;fill-opacity:1;fill-rule:nonzero;stroke:none"
             id="text6641"><tspan
               x="0 0.95446855 1.4317027 2.3861713 3.8161573 4.7706261 5.7250943 6.679563"
               y="0"
               sodipodi:role="line"
               id="tspan6643">htemp__1</tspan></text>
</g></g></g><path
       d="m 537.746,317.154 17.596,0"
       style="fill:none;stroke:#ffffff;stroke-width:0.75;stroke-linecap:butt;stroke-linejoin:miter;stroke-miterlimit:10;stroke-dasharray:none;stroke-opacity:1"
       id="path6645"
       inkscape:connector-curvature="0" /><g
       id="g6647"><g
         id="g6649"
         clip-path="url(#clipPath6651)"><g
           id="g6655"
           transform="translate(538.604,315.437)"><text
             transform="scale(1,-1)"
             style="font-variant:normal;font-weight:normal;font-size:1.71667004px;font-family:Helvetica;-inkscape-font-specification:Helvetica;writing-mode:lr-tb;fill:#ffffff;fill-opacity:1;fill-rule:nonzero;stroke:none"
             id="text6657"><tspan
               x="0 1.1450189 2.0994873 2.5767217 3.1483729 3.5294735 4.483942 5.3422771"
               y="0"
               sodipodi:role="line"
               id="tspan6659">Entries </tspan></text>
</g></g></g><g
       id="g6661"><g
         id="g6663"
         clip-path="url(#clipPath6665)"><g
           id="g6669"
           transform="translate(548.046,315.437)"><text
             transform="matrix(1,0,0,-1,0.47723426,0)"
             style="font-variant:normal;font-weight:normal;font-size:1.71667004px;font-family:Helvetica;-inkscape-font-specification:Helvetica;writing-mode:lr-tb;fill:#ffffff;fill-opacity:1;fill-rule:nonzero;stroke:none"
             id="text6671"><tspan
               x="0 0.95446855 1.9089371 2.8634055 3.8178742 4.7723427"
               y="0"
               sodipodi:role="line"
               id="tspan6673">105051</tspan></text>
</g></g></g><g
       id="g6675"><g
         id="g6677"
         clip-path="url(#clipPath6679)"><g
           id="g6683"
           transform="translate(538.604,313.292)"><text
             transform="scale(1,-1)"
             style="font-variant:normal;font-weight:normal;font-size:1.71667004px;font-family:Helvetica;-inkscape-font-specification:Helvetica;writing-mode:lr-tb;fill:#ffffff;fill-opacity:1;fill-rule:nonzero;stroke:none"
             id="text6685"><tspan
               x="0 1.4299861 2.3844547 3.3389232 4.2933917"
               y="0"
               sodipodi:role="line"
               id="tspan6687">Mean </tspan></text>
</g></g></g><g
       id="g6689"><g
         id="g6691"
         clip-path="url(#clipPath6693)"><g
           id="g6697"
           transform="translate(548.046,313.292)"><text
             transform="matrix(1,0,0,-1,0.47723426,0)"
             style="font-variant:normal;font-weight:normal;font-size:1.71667004px;font-family:Helvetica;-inkscape-font-specification:Helvetica;writing-mode:lr-tb;fill:#ffffff;fill-opacity:1;fill-rule:nonzero;stroke:none"
             id="text6699"><tspan
               x="0 0.95446855 1.4317027 2.3861713 3.3406398 4.2951083"
               y="0"
               sodipodi:role="line"
               id="tspan6701">0.4812</tspan></text>
</g></g></g><g
       id="g6703"><g
         id="g6705"
         clip-path="url(#clipPath6707)"><g
           id="g6711"
           transform="translate(538.604,311.146)"><text
             transform="scale(1,-1)"
             style="font-variant:normal;font-weight:normal;font-size:1.71667004px;font-family:Helvetica;-inkscape-font-specification:Helvetica;writing-mode:lr-tb;fill:#ffffff;fill-opacity:1;fill-rule:nonzero;stroke:none"
             id="text6713"><tspan
               x="0 1.2394358 2.6694219 3.8144407"
               y="0"
               sodipodi:role="line"
               id="tspan6715">RMS </tspan></text>
</g></g></g><g
       id="g6717"><g
         id="g6719"
         clip-path="url(#clipPath6721)"><g
           id="g6725"
           transform="translate(548.046,311.146)"><text
             transform="matrix(1,0,0,-1,0.47723426,0)"
             style="font-variant:normal;font-weight:normal;font-size:1.71667004px;font-family:Helvetica;-inkscape-font-specification:Helvetica;writing-mode:lr-tb;fill:#ffffff;fill-opacity:1;fill-rule:nonzero;stroke:none"
             id="text6727"><tspan
               x="0 0.95446855 1.4317027 2.3861713 3.3406398 4.2951083"
               y="0"
               sodipodi:role="line"
               id="tspan6729">0.2922</tspan></text>
</g></g></g><path
       d="m 56.65,49.3542 453.2,0"
       style="fill:none;stroke:#000000;stroke-width:0.75;stroke-linecap:butt;stroke-linejoin:miter;stroke-miterlimit:10;stroke-dasharray:none;stroke-opacity:1"
       id="path6731"
       inkscape:connector-curvature="0" /><g
       id="g6733"><g
         id="g6735"
         clip-path="url(#clipPath6737)"><g
           id="g6741"
           transform="translate(496.117,6.86667)"><text
             transform="scale(1,-1)"
             style="font-variant:normal;font-weight:normal;font-size:12.875px;font-family:Helvetica;-inkscape-font-specification:Helvetica;writing-mode:lr-tb;fill:#000000;fill-opacity:1;fill-rule:nonzero;stroke:none"
             id="text6743"><tspan
               x="0 2.8582499 10.01675"
               y="0"
               sodipodi:role="line"
               id="tspan6745">int</tspan></text>
</g></g></g><g
       id="g6747"><g
         id="g6749"
         clip-path="url(#clipPath6751)"><g
           id="g6755"
           transform="translate(484.1,12.4458)"><text
             transform="scale(1,-1)"
             style="font-variant:normal;font-weight:normal;font-size:19.3125px;font-family:Helvetica;-inkscape-font-specification:Helvetica;writing-mode:lr-tb;fill:#000000;fill-opacity:1;fill-rule:nonzero;stroke:none"
             id="text6757"><tspan
               x="0"
               y="0"
               id="tspan6759">P</tspan></text>
</g></g></g><path
       d="m 56.65,57.5365 0,-8.1823"
       style="fill:none;stroke:#000000;stroke-width:0.75;stroke-linecap:butt;stroke-linejoin:miter;stroke-miterlimit:10;stroke-dasharray:none;stroke-opacity:1"
       id="path6761"
       inkscape:connector-curvature="0" /><path
       d="m 77.6315,53.4453 0,-4.0911"
       style="fill:none;stroke:#000000;stroke-width:0.75;stroke-linecap:butt;stroke-linejoin:miter;stroke-miterlimit:10;stroke-dasharray:none;stroke-opacity:1"
       id="path6763"
       inkscape:connector-curvature="0" /><path
       d="m 98.613,53.4453 0,-4.0911"
       style="fill:none;stroke:#000000;stroke-width:0.75;stroke-linecap:butt;stroke-linejoin:miter;stroke-miterlimit:10;stroke-dasharray:none;stroke-opacity:1"
       id="path6765"
       inkscape:connector-curvature="0" /><path
       d="m 119.594,53.4453 0,-4.0911"
       style="fill:none;stroke:#000000;stroke-width:0.75;stroke-linecap:butt;stroke-linejoin:miter;stroke-miterlimit:10;stroke-dasharray:none;stroke-opacity:1"
       id="path6767"
       inkscape:connector-curvature="0" /><path
       d="m 140.576,57.5365 0,-8.1823"
       style="fill:none;stroke:#000000;stroke-width:0.75;stroke-linecap:butt;stroke-linejoin:miter;stroke-miterlimit:10;stroke-dasharray:none;stroke-opacity:1"
       id="path6769"
       inkscape:connector-curvature="0" /><path
       d="m 161.557,53.4453 0,-4.0911"
       style="fill:none;stroke:#000000;stroke-width:0.75;stroke-linecap:butt;stroke-linejoin:miter;stroke-miterlimit:10;stroke-dasharray:none;stroke-opacity:1"
       id="path6771"
       inkscape:connector-curvature="0" /><path
       d="m 182.539,53.4453 0,-4.0911"
       style="fill:none;stroke:#000000;stroke-width:0.75;stroke-linecap:butt;stroke-linejoin:miter;stroke-miterlimit:10;stroke-dasharray:none;stroke-opacity:1"
       id="path6773"
       inkscape:connector-curvature="0" /><path
       d="m 203.52,53.4453 0,-4.0911"
       style="fill:none;stroke:#000000;stroke-width:0.75;stroke-linecap:butt;stroke-linejoin:miter;stroke-miterlimit:10;stroke-dasharray:none;stroke-opacity:1"
       id="path6775"
       inkscape:connector-curvature="0" /><path
       d="m 224.502,57.5365 0,-8.1823"
       style="fill:none;stroke:#000000;stroke-width:0.75;stroke-linecap:butt;stroke-linejoin:miter;stroke-miterlimit:10;stroke-dasharray:none;stroke-opacity:1"
       id="path6777"
       inkscape:connector-curvature="0" /><path
       d="m 245.483,53.4453 0,-4.0911"
       style="fill:none;stroke:#000000;stroke-width:0.75;stroke-linecap:butt;stroke-linejoin:miter;stroke-miterlimit:10;stroke-dasharray:none;stroke-opacity:1"
       id="path6779"
       inkscape:connector-curvature="0" /><path
       d="m 266.465,53.4453 0,-4.0911"
       style="fill:none;stroke:#000000;stroke-width:0.75;stroke-linecap:butt;stroke-linejoin:miter;stroke-miterlimit:10;stroke-dasharray:none;stroke-opacity:1"
       id="path6781"
       inkscape:connector-curvature="0" /><path
       d="m 287.446,53.4453 0,-4.0911"
       style="fill:none;stroke:#000000;stroke-width:0.75;stroke-linecap:butt;stroke-linejoin:miter;stroke-miterlimit:10;stroke-dasharray:none;stroke-opacity:1"
       id="path6783"
       inkscape:connector-curvature="0" /><path
       d="m 308.428,57.5365 0,-8.1823"
       style="fill:none;stroke:#000000;stroke-width:0.75;stroke-linecap:butt;stroke-linejoin:miter;stroke-miterlimit:10;stroke-dasharray:none;stroke-opacity:1"
       id="path6785"
       inkscape:connector-curvature="0" /><path
       d="m 329.409,53.4453 0,-4.0911"
       style="fill:none;stroke:#000000;stroke-width:0.75;stroke-linecap:butt;stroke-linejoin:miter;stroke-miterlimit:10;stroke-dasharray:none;stroke-opacity:1"
       id="path6787"
       inkscape:connector-curvature="0" /><path
       d="m 350.391,53.4453 0,-4.0911"
       style="fill:none;stroke:#000000;stroke-width:0.75;stroke-linecap:butt;stroke-linejoin:miter;stroke-miterlimit:10;stroke-dasharray:none;stroke-opacity:1"
       id="path6789"
       inkscape:connector-curvature="0" /><path
       d="m 371.372,53.4453 0,-4.0911"
       style="fill:none;stroke:#000000;stroke-width:0.75;stroke-linecap:butt;stroke-linejoin:miter;stroke-miterlimit:10;stroke-dasharray:none;stroke-opacity:1"
       id="path6791"
       inkscape:connector-curvature="0" /><path
       d="m 392.354,57.5365 0,-8.1823"
       style="fill:none;stroke:#000000;stroke-width:0.75;stroke-linecap:butt;stroke-linejoin:miter;stroke-miterlimit:10;stroke-dasharray:none;stroke-opacity:1"
       id="path6793"
       inkscape:connector-curvature="0" /><path
       d="m 413.335,53.4453 0,-4.0911"
       style="fill:none;stroke:#000000;stroke-width:0.75;stroke-linecap:butt;stroke-linejoin:miter;stroke-miterlimit:10;stroke-dasharray:none;stroke-opacity:1"
       id="path6795"
       inkscape:connector-curvature="0" /><path
       d="m 434.317,53.4453 0,-4.0911"
       style="fill:none;stroke:#000000;stroke-width:0.75;stroke-linecap:butt;stroke-linejoin:miter;stroke-miterlimit:10;stroke-dasharray:none;stroke-opacity:1"
       id="path6797"
       inkscape:connector-curvature="0" /><path
       d="m 455.298,53.4453 0,-4.0911"
       style="fill:none;stroke:#000000;stroke-width:0.75;stroke-linecap:butt;stroke-linejoin:miter;stroke-miterlimit:10;stroke-dasharray:none;stroke-opacity:1"
       id="path6799"
       inkscape:connector-curvature="0" /><path
       d="m 476.28,57.5365 0,-8.1823"
       style="fill:none;stroke:#000000;stroke-width:0.75;stroke-linecap:butt;stroke-linejoin:miter;stroke-miterlimit:10;stroke-dasharray:none;stroke-opacity:1"
       id="path6801"
       inkscape:connector-curvature="0" /><path
       d="m 476.28,57.5365 0,-8.1823"
       style="fill:none;stroke:#000000;stroke-width:0.75;stroke-linecap:butt;stroke-linejoin:miter;stroke-miterlimit:10;stroke-dasharray:none;stroke-opacity:1"
       id="path6803"
       inkscape:connector-curvature="0" /><path
       d="m 497.261,53.4453 0,-4.0911"
       style="fill:none;stroke:#000000;stroke-width:0.75;stroke-linecap:butt;stroke-linejoin:miter;stroke-miterlimit:10;stroke-dasharray:none;stroke-opacity:1"
       id="path6805"
       inkscape:connector-curvature="0" /><g
       id="g6807"><g
         id="g6809"
         clip-path="url(#clipPath6811)"><g
           id="g6815"
           transform="translate(52.3583,34.3333)"><text
             transform="scale(1,-1)"
             style="font-variant:normal;font-weight:normal;font-size:15.87919998px;font-family:Helvetica;-inkscape-font-specification:Helvetica;writing-mode:lr-tb;fill:#000000;fill-opacity:1;fill-rule:nonzero;stroke:none"
             id="text6817"><tspan
               x="0"
               y="0"
               id="tspan6819">0</tspan></text>
</g></g></g><g
       id="g6821"><g
         id="g6823"
         clip-path="url(#clipPath6825)"><g
           id="g6829"
           transform="translate(129.608,34.3333)"><text
             transform="scale(1,-1)"
             style="font-variant:normal;font-weight:normal;font-size:15.87919998px;font-family:Helvetica;-inkscape-font-specification:Helvetica;writing-mode:lr-tb;fill:#000000;fill-opacity:1;fill-rule:nonzero;stroke:none"
             id="text6831"><tspan
               x="0 8.8288355 13.243253"
               y="0"
               sodipodi:role="line"
               id="tspan6833">0.2</tspan></text>
</g></g></g><g
       id="g6835"><g
         id="g6837"
         clip-path="url(#clipPath6839)"><g
           id="g6843"
           transform="translate(213.296,34.3333)"><text
             transform="scale(1,-1)"
             style="font-variant:normal;font-weight:normal;font-size:15.87919998px;font-family:Helvetica;-inkscape-font-specification:Helvetica;writing-mode:lr-tb;fill:#000000;fill-opacity:1;fill-rule:nonzero;stroke:none"
             id="text6845"><tspan
               x="0 8.8288355 13.243253"
               y="0"
               sodipodi:role="line"
               id="tspan6847">0.4</tspan></text>
</g></g></g><g
       id="g6849"><g
         id="g6851"
         clip-path="url(#clipPath6853)"><g
           id="g6857"
           transform="translate(297.412,34.3333)"><text
             transform="scale(1,-1)"
             style="font-variant:normal;font-weight:normal;font-size:15.87919998px;font-family:Helvetica;-inkscape-font-specification:Helvetica;writing-mode:lr-tb;fill:#000000;fill-opacity:1;fill-rule:nonzero;stroke:none"
             id="text6859"><tspan
               x="0 8.8288355 13.243253"
               y="0"
               sodipodi:role="line"
               id="tspan6861">0.6</tspan></text>
</g></g></g><g
       id="g6863"><g
         id="g6865"
         clip-path="url(#clipPath6867)"><g
           id="g6871"
           transform="translate(381.529,34.3333)"><text
             transform="scale(1,-1)"
             style="font-variant:normal;font-weight:normal;font-size:15.87919998px;font-family:Helvetica;-inkscape-font-specification:Helvetica;writing-mode:lr-tb;fill:#000000;fill-opacity:1;fill-rule:nonzero;stroke:none"
             id="text6873"><tspan
               x="0 8.8288355 13.243253"
               y="0"
               sodipodi:role="line"
               id="tspan6875">0.8</tspan></text>
</g></g></g><g
       id="g6877"><g
         id="g6879"
         clip-path="url(#clipPath6881)"><g
           id="g6885"
           transform="translate(472.942,34.3333)"><text
             transform="scale(1,-1)"
             style="font-variant:normal;font-weight:normal;font-size:15.87919998px;font-family:Helvetica;-inkscape-font-specification:Helvetica;writing-mode:lr-tb;fill:#000000;fill-opacity:1;fill-rule:nonzero;stroke:none"
             id="text6887"><tspan
               x="0"
               y="0"
               id="tspan6889">1</tspan></text>
</g></g></g><path
       d="m 56.65,49.3542 0,272.9498"
       style="fill:none;stroke:#000000;stroke-width:0.75;stroke-linecap:butt;stroke-linejoin:miter;stroke-miterlimit:10;stroke-dasharray:none;stroke-opacity:1"
       id="path6891"
       inkscape:connector-curvature="0" /><path
       d="m 63.4531,56.765 -6.8031,0"
       style="fill:none;stroke:#000000;stroke-width:0.75;stroke-linecap:butt;stroke-linejoin:miter;stroke-miterlimit:10;stroke-dasharray:none;stroke-opacity:1"
       id="path6893"
       inkscape:connector-curvature="0" /><path
       d="m 63.4531,65.0498 -6.8031,0"
       style="fill:none;stroke:#000000;stroke-width:0.75;stroke-linecap:butt;stroke-linejoin:miter;stroke-miterlimit:10;stroke-dasharray:none;stroke-opacity:1"
       id="path6895"
       inkscape:connector-curvature="0" /><path
       d="m 70.2563,72.4608 -13.6063,0"
       style="fill:none;stroke:#000000;stroke-width:0.75;stroke-linecap:butt;stroke-linejoin:miter;stroke-miterlimit:10;stroke-dasharray:none;stroke-opacity:1"
       id="path6897"
       inkscape:connector-curvature="0" /><g
       id="g6899"><g
         id="g6901"
         clip-path="url(#clipPath6903)"><g
           id="g6907"
           transform="translate(45.9208,72.1)"><text
             transform="scale(1,-1)"
             style="font-variant:normal;font-weight:normal;font-size:10.72920036px;font-family:Helvetica;-inkscape-font-specification:Helvetica;writing-mode:lr-tb;fill:#000000;fill-opacity:1;fill-rule:nonzero;stroke:none"
             id="text6909"><tspan
               x="0"
               y="0"
               id="tspan6911">2</tspan></text>
</g></g></g><g
       id="g6913"><g
         id="g6915"
         clip-path="url(#clipPath6917)"><g
           id="g6921"
           transform="translate(28.7542,65.2333)"><text
             transform="scale(1,-1)"
             style="font-variant:normal;font-weight:normal;font-size:15.87919998px;font-family:Helvetica;-inkscape-font-specification:Helvetica;writing-mode:lr-tb;fill:#000000;fill-opacity:1;fill-rule:nonzero;stroke:none"
             id="text6923"><tspan
               x="0 8.8288355"
               y="0"
               sodipodi:role="line"
               id="tspan6925">10</tspan></text>
</g></g></g><path
       d="m 63.4531,121.216 -6.8031,0"
       style="fill:none;stroke:#000000;stroke-width:0.75;stroke-linecap:butt;stroke-linejoin:miter;stroke-miterlimit:10;stroke-dasharray:none;stroke-opacity:1"
       id="path6927"
       inkscape:connector-curvature="0" /><path
       d="m 63.4531,149.736 -6.8031,0"
       style="fill:none;stroke:#000000;stroke-width:0.75;stroke-linecap:butt;stroke-linejoin:miter;stroke-miterlimit:10;stroke-dasharray:none;stroke-opacity:1"
       id="path6929"
       inkscape:connector-curvature="0" /><path
       d="m 63.4531,169.972 -6.8031,0"
       style="fill:none;stroke:#000000;stroke-width:0.75;stroke-linecap:butt;stroke-linejoin:miter;stroke-miterlimit:10;stroke-dasharray:none;stroke-opacity:1"
       id="path6931"
       inkscape:connector-curvature="0" /><path
       d="m 63.4531,185.667 -6.8031,0"
       style="fill:none;stroke:#000000;stroke-width:0.75;stroke-linecap:butt;stroke-linejoin:miter;stroke-miterlimit:10;stroke-dasharray:none;stroke-opacity:1"
       id="path6933"
       inkscape:connector-curvature="0" /><path
       d="m 63.4531,198.492 -6.8031,0"
       style="fill:none;stroke:#000000;stroke-width:0.75;stroke-linecap:butt;stroke-linejoin:miter;stroke-miterlimit:10;stroke-dasharray:none;stroke-opacity:1"
       id="path6935"
       inkscape:connector-curvature="0" /><path
       d="m 63.4531,209.335 -6.8031,0"
       style="fill:none;stroke:#000000;stroke-width:0.75;stroke-linecap:butt;stroke-linejoin:miter;stroke-miterlimit:10;stroke-dasharray:none;stroke-opacity:1"
       id="path6937"
       inkscape:connector-curvature="0" /><path
       d="m 63.4531,218.727 -6.8031,0"
       style="fill:none;stroke:#000000;stroke-width:0.75;stroke-linecap:butt;stroke-linejoin:miter;stroke-miterlimit:10;stroke-dasharray:none;stroke-opacity:1"
       id="path6939"
       inkscape:connector-curvature="0" /><path
       d="m 63.4531,227.012 -6.8031,0"
       style="fill:none;stroke:#000000;stroke-width:0.75;stroke-linecap:butt;stroke-linejoin:miter;stroke-miterlimit:10;stroke-dasharray:none;stroke-opacity:1"
       id="path6941"
       inkscape:connector-curvature="0" /><path
       d="m 70.2563,234.423 -13.6063,0"
       style="fill:none;stroke:#000000;stroke-width:0.75;stroke-linecap:butt;stroke-linejoin:miter;stroke-miterlimit:10;stroke-dasharray:none;stroke-opacity:1"
       id="path6943"
       inkscape:connector-curvature="0" /><g
       id="g6945"><g
         id="g6947"
         clip-path="url(#clipPath6949)"><g
           id="g6953"
           transform="translate(45.9208,234.754)"><text
             transform="scale(1,-1)"
             style="font-variant:normal;font-weight:normal;font-size:10.72920036px;font-family:Helvetica;-inkscape-font-specification:Helvetica;writing-mode:lr-tb;fill:#000000;fill-opacity:1;fill-rule:nonzero;stroke:none"
             id="text6955"><tspan
               x="0"
               y="0"
               id="tspan6957">3</tspan></text>
</g></g></g><g
       id="g6959"><g
         id="g6961"
         clip-path="url(#clipPath6963)"><g
           id="g6967"
           transform="translate(28.7542,227.458)"><text
             transform="scale(1,-1)"
             style="font-variant:normal;font-weight:normal;font-size:15.87919998px;font-family:Helvetica;-inkscape-font-specification:Helvetica;writing-mode:lr-tb;fill:#000000;fill-opacity:1;fill-rule:nonzero;stroke:none"
             id="text6969"><tspan
               x="0 8.8288355"
               y="0"
               sodipodi:role="line"
               id="tspan6971">10</tspan></text>
</g></g></g><path
       d="m 63.4531,283.178 -6.8031,0"
       style="fill:none;stroke:#000000;stroke-width:0.75;stroke-linecap:butt;stroke-linejoin:miter;stroke-miterlimit:10;stroke-dasharray:none;stroke-opacity:1"
       id="path6973"
       inkscape:connector-curvature="0" /><path
       d="m 63.4531,311.699 -6.8031,0"
       style="fill:none;stroke:#000000;stroke-width:0.75;stroke-linecap:butt;stroke-linejoin:miter;stroke-miterlimit:10;stroke-dasharray:none;stroke-opacity:1"
       id="path6975"
       inkscape:connector-curvature="0" /><path
       d="m 537.746,310.717 17.5958,0 0,8.58333 -17.5958,0 0,-8.58333 z"
       style="fill:#ffffff;fill-opacity:1;fill-rule:evenodd;stroke:none"
       id="path6977"
       inkscape:connector-curvature="0" /><path
       d="m 537.746,310.717 17.596,0"
       style="fill:none;stroke:#ffffff;stroke-width:0.75;stroke-linecap:butt;stroke-linejoin:miter;stroke-miterlimit:10;stroke-dasharray:none;stroke-opacity:1"
       id="path6979"
       inkscape:connector-curvature="0" /><path
       d="m 555.342,310.717 0,8.583"
       style="fill:none;stroke:#ffffff;stroke-width:0.75;stroke-linecap:butt;stroke-linejoin:miter;stroke-miterlimit:10;stroke-dasharray:none;stroke-opacity:1"
       id="path6981"
       inkscape:connector-curvature="0" /><path
       d="m 555.342,319.3 -17.596,0"
       style="fill:none;stroke:#ffffff;stroke-width:0.75;stroke-linecap:butt;stroke-linejoin:miter;stroke-miterlimit:10;stroke-dasharray:none;stroke-opacity:1"
       id="path6983"
       inkscape:connector-curvature="0" /><path
       d="m 537.746,319.3 0,-8.583"
       style="fill:none;stroke:#ffffff;stroke-width:0.75;stroke-linecap:butt;stroke-linejoin:miter;stroke-miterlimit:10;stroke-dasharray:none;stroke-opacity:1"
       id="path6985"
       inkscape:connector-curvature="0" /><g
       id="g6987"><g
         id="g6989"
         clip-path="url(#clipPath6991)"><g
           id="g6995"
           transform="translate(542.467,317.583)"><text
             transform="scale(1,-1)"
             style="font-variant:normal;font-weight:normal;font-size:1.71667004px;font-family:Helvetica;-inkscape-font-specification:Helvetica;writing-mode:lr-tb;fill:#ffffff;fill-opacity:1;fill-rule:nonzero;stroke:none"
             id="text6997"><tspan
               x="0 0.95446855 1.4317027 2.3861713 3.8161573 4.7706261 5.7250943 6.679563"
               y="0"
               sodipodi:role="line"
               id="tspan6999">htemp__1</tspan></text>
</g></g></g><path
       d="m 537.746,317.154 17.596,0"
       style="fill:none;stroke:#ffffff;stroke-width:0.75;stroke-linecap:butt;stroke-linejoin:miter;stroke-miterlimit:10;stroke-dasharray:none;stroke-opacity:1"
       id="path7001"
       inkscape:connector-curvature="0" /><g
       id="g7003"><g
         id="g7005"
         clip-path="url(#clipPath7007)"><g
           id="g7011"
           transform="translate(538.604,315.437)"><text
             transform="scale(1,-1)"
             style="font-variant:normal;font-weight:normal;font-size:1.71667004px;font-family:Helvetica;-inkscape-font-specification:Helvetica;writing-mode:lr-tb;fill:#ffffff;fill-opacity:1;fill-rule:nonzero;stroke:none"
             id="text7013"><tspan
               x="0 1.1450189 2.0994873 2.5767217 3.1483729 3.5294735 4.483942 5.3422771"
               y="0"
               sodipodi:role="line"
               id="tspan7015">Entries </tspan></text>
</g></g></g><g
       id="g7017"><g
         id="g7019"
         clip-path="url(#clipPath7021)"><g
           id="g7025"
           transform="translate(548.046,315.437)"><text
             transform="matrix(1,0,0,-1,0.47723426,0)"
             style="font-variant:normal;font-weight:normal;font-size:1.71667004px;font-family:Helvetica;-inkscape-font-specification:Helvetica;writing-mode:lr-tb;fill:#ffffff;fill-opacity:1;fill-rule:nonzero;stroke:none"
             id="text7027"><tspan
               x="0 0.95446855 1.9089371 2.8634055 3.8178742 4.7723427"
               y="0"
               sodipodi:role="line"
               id="tspan7029">105051</tspan></text>
</g></g></g><g
       id="g7031"><g
         id="g7033"
         clip-path="url(#clipPath7035)"><g
           id="g7039"
           transform="translate(538.604,313.292)"><text
             transform="scale(1,-1)"
             style="font-variant:normal;font-weight:normal;font-size:1.71667004px;font-family:Helvetica;-inkscape-font-specification:Helvetica;writing-mode:lr-tb;fill:#ffffff;fill-opacity:1;fill-rule:nonzero;stroke:none"
             id="text7041"><tspan
               x="0 1.4299861 2.3844547 3.3389232 4.2933917"
               y="0"
               sodipodi:role="line"
               id="tspan7043">Mean </tspan></text>
</g></g></g><g
       id="g7045"><g
         id="g7047"
         clip-path="url(#clipPath7049)"><g
           id="g7053"
           transform="translate(548.046,313.292)"><text
             transform="matrix(1,0,0,-1,0.47723426,0)"
             style="font-variant:normal;font-weight:normal;font-size:1.71667004px;font-family:Helvetica;-inkscape-font-specification:Helvetica;writing-mode:lr-tb;fill:#ffffff;fill-opacity:1;fill-rule:nonzero;stroke:none"
             id="text7055"><tspan
               x="0 0.95446855 1.4317027 2.3861713 3.3406398 4.2951083"
               y="0"
               sodipodi:role="line"
               id="tspan7057">0.4812</tspan></text>
</g></g></g><g
       id="g7059"><g
         id="g7061"
         clip-path="url(#clipPath7063)"><g
           id="g7067"
           transform="translate(538.604,311.146)"><text
             transform="scale(1,-1)"
             style="font-variant:normal;font-weight:normal;font-size:1.71667004px;font-family:Helvetica;-inkscape-font-specification:Helvetica;writing-mode:lr-tb;fill:#ffffff;fill-opacity:1;fill-rule:nonzero;stroke:none"
             id="text7069"><tspan
               x="0 1.2394358 2.6694219 3.8144407"
               y="0"
               sodipodi:role="line"
               id="tspan7071">RMS </tspan></text>
</g></g></g><g
       id="g7073"><g
         id="g7075"
         clip-path="url(#clipPath7077)"><g
           id="g7081"
           transform="translate(548.046,311.146)"><text
             transform="matrix(1,0,0,-1,0.47723426,0)"
             style="font-variant:normal;font-weight:normal;font-size:1.71667004px;font-family:Helvetica;-inkscape-font-specification:Helvetica;writing-mode:lr-tb;fill:#ffffff;fill-opacity:1;fill-rule:nonzero;stroke:none"
             id="text7083"><tspan
               x="0 0.95446855 1.4317027 2.3861713 3.3406398 4.2951083"
               y="0"
               sodipodi:role="line"
               id="tspan7085">0.2922</tspan></text>
</g></g></g><g
       id="g7087"><g
         id="g7089"
         clip-path="url(#clipPath7091)"><g
           id="g7095"
           transform="translate(257.929,325.308)"><text
             transform="scale(1,-1)"
             style="font-variant:normal;font-weight:normal;font-size:16.30830002px;font-family:Helvetica;-inkscape-font-specification:Helvetica;writing-mode:lr-tb;fill:#ffffff;fill-opacity:1;fill-rule:nonzero;stroke:none"
             id="text7097"><tspan
               x="0 9.0674152 14.498078 23.565493 32.632908 37.166615 46.234032"
               y="0"
               sodipodi:role="line"
               id="tspan7099">probInt</tspan></text>
</g></g></g><path
       d="m 57.309382,48.945185 0,75.180405 4.5355,0 0,137.586 4.5354,0 0,-28.176 4.5354,0 0,-17.847 4.5354,0 0,-13.294 4.5355,0 0,-8.851 4.5354,0 0,-6.224 4.5354,0 0,-7.114 4.5355,0 0,-3.032 4.5354,0 0,-5.077 4.535198,0 0,-4.058 4.536,0 0,-4.383 4.535,0 0,-3.081 4.536,0 0,-1.025 4.535,0 0,-2.882 4.535,0 0,-1.683 4.536,0 0,-1.605 4.535,0 0,-1.824 4.53599,0 0,-2.447 4.535,0 0,-0.151 4.536,0 0,-2.905 4.535,0 0,0.158 4.535,0 0,-1.027 4.53601,0 0,-2.924 4.535,0 0,-0.829 4.536,0 0,1.202 4.535,0 0,-2.621 4.536,0 0,-1.872 4.535,0 0,1.814 4.535,0 0,-0.881 4.536,0 0,-0.514 4.535,0 0,-1.958 4.536,0 0,-0.287 4.535,0 0,-2.373 4.536,0 0,1.876 4.535,0 0,-0.752 4.536,0 0,-2.466 4.535,0 0,-0.417 4.535,0 0,-1.493 4.536,0 0,1.559 4.535,0 0,-1.604 4.536,0 0,0.852 4.535,0 0,1.583 4.536,0 0,-2.345 4.535,0 0,-1.877 4.535,0 0,2.079 4.536,0 0,-1.893 4.535,0 0,0.461 4.536,0 0,0 4.535,0 0,-0.763 4.536,0 0,-1.7 4.535,0 0,-0.072 4.535,0 0,1.398 4.536,0 0,-2.461 4.535,0 0,3.137 4.536,0 0,-2.362 4.535,0 0,1.428 4.536,0 0,-2.545 4.535,0 0,1.021 4.535,0 0,0.36 4.536,0 0,-1.948 4.535,0 0,-1.934 4.536,0 0,2.083 4.535,0 0,0.711 4.536,0 0,-0.86 4.535,0 0,0.982 4.535,0 0,0.461 4.536,0 0,-2.014 4.535,0 0,0.423 4.536,0 0,1.687 4.535,0 0,-2.788 4.536,0 0,0.378 4.535,0 0,1.291 4.536,0 0,-2.482 4.535,0 0,2.235 4.535,0 0,-2.748 4.536,0 0,2.526 4.535,0 0,0.296 4.536,0 0,-1.194 4.535,0 0,-0.226 4.536,0 0,-1.274 4.535,0 0,1.173 4.535,0 0,-1.586 4.536,0 0,-0.103 4.535,0 0,0.31 4.536,0 0,0.872 4.535,0 0,0.859 4.536,0 0,-1.012 4.535,0 0,-0.077 4.535,0 0,-0.539 4.536,0 0,-0.103 4.535,0 0,1.631 4.536,0 0,-32.148905 4.535,0 0,-42.8805 4.536,0 0,0 4.535,0 0,0 4.535,0 0,0 4.536,0 0,0 4.535,0 0,0 4.536,0 0,0 4.535,0 0,0"
       style="fill:#ff0000;fill-opacity:1;fill-rule:evenodd;stroke:none"
       id="path7680"
       inkscape:connector-curvature="0" /><path
       d="m 57.263656,125.11873 4.5355,0 0,137.58601 4.5354,0 0,-28.176 4.5354,0 0,-17.847 4.5354,0 0,-13.294 4.5355,0 0,-8.851 4.5354,0 0,-6.224 4.5354,0 0,-7.114 4.5355,0 0,-3.032 4.5354,0 0,-5.077 4.535204,0 0,-4.058 4.536,0 0,-4.383 4.535,0 0,-3.081 4.536,0 0,-1.025 4.535,0 0,-2.882 4.535,0 0,-1.683 4.536,0 0,-1.605 4.535,0 0,-1.824 4.53599,0 0,-2.447 4.535,0 0,-0.151 4.536,0 0,-2.905 4.535,0 0,0.158 4.535,0 0,-1.027 4.53601,0 0,-2.924 4.535,0 0,-0.829 4.536,0 0,1.202 4.535,0 0,-2.621 4.536,0 0,-1.872 4.535,0 0,1.814 4.535,0 0,-0.881 4.536,0 0,-0.514 4.535,0 0,-1.958 4.536,0 0,-0.287 4.535,0 0,-2.37301 4.536,0 0,1.87601 4.535,0 0,-0.752 4.536,0 0,-2.46601 4.535,0 0,-0.417 4.535,0 0,-1.493 4.536,0 0,1.559 4.535,0 0,-1.604 4.536,0 0,0.852 4.535,0 0,1.583 4.536,0 0,-2.345 4.535,0 0,-1.877 4.535,0 0,2.079 4.536,0 0,-1.893 4.535,0 0,0.461 4.536,0 0,0 4.535,0 0,-0.763 4.536,0 0,-1.7 4.535,0 0,-0.072 4.535,0 0,1.398 4.536,0 0,-2.461 4.535,0 0,3.137 4.536,0 0,-2.362 4.535,0 0,1.428 4.536,0 0,-2.545 4.535,0 0,1.021 4.535,0 0,0.36 4.536,0 0,-1.948 4.535,0 0,-1.934 4.536,0 0,2.083 4.535,0 0,0.711 4.536,0 0,-0.86 4.535,0 0,0.982 4.535,0 0,0.461 4.536,0 0,-2.014 4.535,0 0,0.423 4.536,0 0,1.687 4.535,0 0,-2.788 4.536,0 0,0.378 4.535,0 0,1.291 4.536,0 0,-2.482 4.535,0 0,2.235 4.535,0 0,-2.748 4.536,0 0,2.526 4.535,0 0,0.296 4.536,0 0,-1.194 4.535,0 0,-0.226 4.536,0 0,-1.274 4.535,0 0,1.173 4.535,0 0,-1.586 4.536,0 0,-0.103 4.535,0 0,0.31 4.536,0 0,0.872 4.535,0 0,0.859 4.536,0 0,-1.012 4.535,0 0,-0.077 4.535,0 0,-0.539 4.536,0 0,-0.103 4.535,0 0,1.631 4.536,0 0,-32.148896 4.535,0 0,-42.8805 4.536,0 0,0 4.535,0 0,0 4.535,0 0,0 4.536,0 0,0 4.535,0 0,0 4.536,0 0,0 4.535,0"
       style="fill:none;stroke:#000000;stroke-width:1.5;stroke-linecap:butt;stroke-linejoin:miter;stroke-miterlimit:10;stroke-dasharray:none;stroke-opacity:1"
       id="path7682"
       inkscape:connector-curvature="0" /><path
       d="m 56.413497,49.476108 453.200003,0 0,272.950002 -453.200003,0 0,-272.950002 z"
       style="fill:none;stroke:#000000;stroke-width:0.75040001;stroke-linecap:butt;stroke-linejoin:miter;stroke-miterlimit:10;stroke-dasharray:none;stroke-opacity:1"
       id="path6615-7"
       inkscape:connector-curvature="0" /><rect
       style="opacity:1;fill:#1000ff;fill-opacity:1;fill-rule:evenodd;stroke:#24201c;stroke-width:0.75040001;stroke-miterlimit:10;stroke-dasharray:none;stroke-dashoffset:0;stroke-opacity:1"
       id="rect8794"
       width="26.564444"
       height="10.727949"
       x="263.60101"
       y="-307.53452"
       transform="scale(1,-1)" /><rect
       style="opacity:1;fill:#ff0000;fill-opacity:1;fill-rule:evenodd;stroke:#24201c;stroke-width:0.75040001;stroke-miterlimit:10;stroke-dasharray:none;stroke-dashoffset:0;stroke-opacity:1"
       id="rect8794-5"
       width="26.564444"
       height="10.727949"
       x="263.63977"
       y="-277.38983"
       transform="scale(1,-1)" /><text
       xml:space="preserve"
       style="font-style:normal;font-weight:normal;font-size:32px;line-height:125%;font-family:sans-serif;letter-spacing:0px;word-spacing:0px;fill:#000000;fill-opacity:1;stroke:none;stroke-width:1px;stroke-linecap:butt;stroke-linejoin:miter;stroke-opacity:1"
       x="301.51047"
       y="-297.24997"
       id="text8811"
       sodipodi:linespacing="125%"
       transform="scale(1,-1)"><tspan
         sodipodi:role="line"
         id="tspan8813"
         x="301.51047"
         y="-297.24997"
         style="font-size:16px">Internal event</tspan></text>
<text
       xml:space="preserve"
       style="font-style:normal;font-weight:normal;font-size:32px;line-height:125%;font-family:sans-serif;letter-spacing:0px;word-spacing:0px;fill:#000000;fill-opacity:1;stroke:none;stroke-width:1px;stroke-linecap:butt;stroke-linejoin:miter;stroke-opacity:1"
       x="300.42935"
       y="-266.63931"
       id="text8811-0"
       sodipodi:linespacing="125%"
       transform="scale(1,-1)"><tspan
         sodipodi:role="line"
         id="tspan8813-9"
         x="300.42935"
         y="-266.63931"
         style="font-size:16px">External event</tspan></text>
</g></svg>